<?xml version="1.0" standalone="no"?>
<!DOCTYPE svg PUBLIC "-//W3C//DTD SVG 20010904//EN"
 "http://www.w3.org/TR/2001/REC-SVG-20010904/DTD/svg10.dtd">
<svg version="1.0" xmlns="http://www.w3.org/2000/svg"
 width="1000.000000pt" height="1000.000000pt" viewBox="0 0 1000.000000 1000.000000"
 preserveAspectRatio="xMidYMid meet">

<g transform="translate(0.000000,1000.000000) scale(0.100000,-0.100000)"
fill="#ffffff" stroke="none">
<path d="M4495 9919 c-1368 -139 -2610 -836 -3434 -1928 -975 -1291 -1258
-2932 -775 -4489 90 -288 261 -683 410 -943 247 -432 581 -855 919 -1165 367
-336 688 -564 1100 -780 497 -260 1093 -449 1600 -508 72 -8 193 -23 270 -32
193 -24 618 -24 855 0 422 41 757 112 1142 240 740 246 1410 669 1962 1237
904 931 1401 2155 1400 3449 -1 433 -46 796 -150 1214 -224 891 -668 1666
-1326 2312 -351 345 -721 614 -1168 852 -477 253 -1094 452 -1615 522 -336 45
-856 53 -1190 19z m775 -280 c909 -73 1717 -358 2388 -841 366 -263 742 -625
1028 -989 96 -123 267 -373 343 -503 301 -512 513 -1170 592 -1838 26 -221 32
-638 11 -838 -87 -828 -335 -1549 -744 -2158 -300 -448 -734 -902 -1173 -1227
-659 -489 -1409 -773 -2295 -872 -190 -21 -632 -23 -795 -5 -533 62 -936 159
-1370 331 -888 349 -1742 1093 -2275 1981 -429 716 -679 1754 -620 2575 54
738 272 1471 607 2044 139 238 344 519 545 748 112 128 406 416 533 522 588
491 1200 791 1970 967 184 41 379 72 605 93 327 32 374 32 650 10z"/>
<path d="M3529 8637 c-47 -32 -83 -102 -120 -239 -33 -121 -75 -218 -96 -226
-10 -3 -13 23 -13 107 l0 111 -25 0 c-33 0 -68 -38 -84 -89 -6 -23 -23 -116
-36 -208 -24 -163 -58 -303 -73 -303 -4 0 -19 26 -34 58 -33 71 -108 175 -143
198 -34 22 -52 12 -76 -42 -37 -83 -109 -495 -109 -623 0 -21 -3 -41 -7 -44
-3 -4 -49 57 -101 136 -52 78 -98 146 -103 151 -22 24 -95 -173 -125 -339 -21
-115 -21 -298 0 -388 9 -38 16 -70 16 -73 0 -2 -13 -4 -28 -4 -43 0 -107 47
-243 177 -138 133 -163 152 -173 126 -19 -48 -26 -223 -16 -351 18 -216 64
-367 133 -439 l30 -33 -36 -15 c-72 -30 -123 -13 -283 92 -89 58 -163 88 -200
81 -15 -2 -21 -17 -28 -62 -18 -114 29 -272 150 -496 30 -56 54 -103 54 -104
0 -2 -35 9 -79 25 -85 30 -229 56 -255 46 -47 -18 0 -134 151 -370 164 -257
189 -318 139 -337 -78 -29 -240 -20 -318 19 -35 17 -38 17 -38 2 0 -40 44
-141 88 -203 26 -37 84 -108 130 -157 45 -51 82 -100 82 -111 0 -18 -7 -20
-87 -20 -49 0 -112 -3 -142 -7 l-53 -6 4 -48 c12 -119 116 -244 350 -419 76
-56 135 -106 132 -111 -3 -5 -17 -9 -32 -9 -80 -1 -291 -76 -300 -108 -7 -23
71 -85 218 -172 136 -81 184 -122 164 -139 -5 -4 -45 -20 -89 -36 -44 -15 -84
-32 -90 -36 -12 -11 66 -91 165 -169 223 -177 476 -288 808 -355 93 -19 177
-42 197 -54 26 -15 37 -17 40 -8 2 6 20 63 40 125 72 224 80 237 409 651 264
331 472 597 589 752 l87 117 -16 38 c-25 59 -81 131 -128 164 -95 65 -251 90
-326 52 l-35 -17 -7 -170 c-10 -269 -48 -439 -122 -550 -62 -93 -156 -118
-243 -64 -105 65 -229 274 -299 504 -46 152 -55 299 -30 503 71 584 311 1350
889 2842 245 633 265 690 240 690 -5 0 -31 -13 -59 -29 -64 -37 -184 -156
-263 -262 -69 -91 -66 -97 -51 91 6 69 7 144 4 168 -6 38 -9 42 -34 42 -15 0
-42 -10 -61 -23z"/>
<path d="M6376 8618 c-3 -24 -2 -99 4 -168 15 -188 18 -182 -51 -91 -79 106
-199 225 -263 262 -28 16 -54 29 -58 29 -26 0 -6 -57 239 -690 578 -1492 818
-2258 889 -2842 25 -204 16 -351 -30 -503 -70 -230 -194 -439 -299 -504 -87
-54 -181 -29 -243 64 -74 111 -112 281 -122 550 l-7 170 -35 17 c-75 38 -231
13 -326 -52 -47 -33 -103 -105 -128 -164 l-16 -38 87 -117 c117 -155 325 -421
589 -752 329 -414 337 -427 409 -651 20 -62 38 -119 40 -125 3 -9 14 -7 40 8
20 12 104 35 197 54 332 67 585 178 808 355 99 78 177 158 165 169 -6 4 -46
21 -90 36 -44 16 -84 32 -89 36 -20 17 28 58 164 139 147 87 225 149 218 172
-9 32 -220 107 -300 108 -15 0 -29 4 -32 9 -3 5 56 55 132 111 234 175 338
300 350 419 l4 48 -53 6 c-30 4 -93 7 -141 7 -81 0 -88 2 -88 20 0 11 37 60
83 111 45 49 103 120 129 157 44 62 88 163 88 203 0 15 -3 15 -38 -2 -78 -39
-240 -48 -318 -19 -50 19 -25 80 139 337 151 236 198 352 151 370 -26 10 -170
-16 -255 -46 -44 -16 -79 -27 -79 -25 0 1 24 48 54 104 121 224 168 382 150
496 -7 45 -13 60 -28 62 -37 7 -111 -23 -200 -81 -160 -105 -211 -122 -283
-92 l-36 15 30 33 c69 72 115 223 133 439 10 128 3 303 -16 351 -10 26 -35 7
-173 -126 -136 -130 -200 -177 -243 -177 -15 0 -28 2 -28 4 0 3 7 35 16 73 21
90 21 273 0 388 -30 166 -103 363 -125 339 -5 -5 -51 -73 -103 -151 -52 -79
-98 -140 -101 -136 -4 3 -7 23 -7 44 0 128 -72 540 -109 623 -24 54 -42 64
-76 42 -35 -23 -110 -127 -143 -198 -15 -32 -30 -58 -34 -58 -15 0 -49 140
-73 303 -13 92 -30 185 -36 208 -16 51 -51 89 -84 89 l-25 0 0 -111 c0 -84 -3
-110 -12 -107 -22 8 -64 105 -97 226 -18 64 -44 139 -59 167 -30 55 -81 95
-122 95 -25 0 -28 -4 -34 -42z"/>
<path d="M4698 4954 c-95 -143 -200 -273 -478 -594 -501 -579 -742 -911 -895
-1233 -122 -257 -164 -434 -195 -822 -30 -376 -53 -522 -125 -803 -25 -96 -45
-178 -45 -183 0 -14 91 -11 146 6 96 29 158 106 189 237 8 35 22 162 30 283
24 347 43 470 96 626 18 52 82 194 94 207 2 2 51 -24 109 -58 131 -77 182 -93
258 -85 145 15 275 90 433 249 284 285 498 740 584 1246 32 187 42 322 42 552
0 200 2 217 19 233 19 17 18 19 -33 93 -29 41 -73 98 -98 125 l-45 50 -86
-129z"/>
<path d="M5168 5031 c-23 -26 -66 -82 -95 -123 -51 -74 -52 -76 -33 -93 17
-16 19 -33 19 -233 0 -230 10 -365 42 -552 86 -506 300 -961 584 -1246 158
-159 288 -234 433 -249 76 -8 127 8 258 85 58 34 107 60 109 58 12 -13 76
-155 94 -207 53 -156 72 -279 96 -626 8 -121 22 -248 30 -283 31 -131 93 -208
189 -237 55 -17 146 -20 146 -6 0 5 -20 87 -45 183 -72 281 -95 427 -125 803
-31 388 -73 565 -195 822 -153 322 -394 654 -895 1233 -277 320 -383 451 -477
593 -46 70 -86 127 -88 127 -2 0 -23 -22 -47 -49z"/>
</g>
</svg>
