<?xml version="1.0" standalone="no"?>
<!DOCTYPE svg PUBLIC "-//W3C//DTD SVG 20010904//EN"
 "http://www.w3.org/TR/2001/REC-SVG-20010904/DTD/svg10.dtd">
<svg version="1.0" xmlns="http://www.w3.org/2000/svg"
 width="860.000000pt" height="770.000000pt" viewBox="0 0 860.000000 770.000000"
 preserveAspectRatio="xMidYMid meet">

<g transform="translate(0.000000,770.000000) scale(0.100000,-0.100000)"
fill="#ffffff" stroke="none">
<path d="M4103 6699 c-105 -316 -213 -636 -238 -711 l-47 -138 -779 -2 -778
-3 631 -430 c346 -236 632 -435 635 -441 4 -10 -400 -1185 -463 -1348 -8 -21
-13 -41 -10 -43 2 -3 280 187 616 422 337 234 617 428 624 430 6 2 290 -191
631 -429 341 -238 621 -432 623 -431 2 1 -4 20 -12 41 -8 22 -89 251 -180 509
-90 259 -194 555 -231 660 -62 179 -65 190 -48 203 10 7 297 203 638 435 l619
422 -779 5 -779 5 -232 695 c-128 382 -236 701 -241 709 -6 10 -69 -166 -200
-560z"/>
<path d="M7887 4794 c-89 -115 -266 -300 -379 -396 -185 -158 -288 -233 -536
-391 -549 -350 -993 -664 -1517 -1071 l-275 -215 -38 16 c-59 25 -114 54 -159
85 l-43 29 0 99 c0 99 0 100 -26 106 -47 12 -77 -7 -106 -65 -30 -59 -34 -106
-15 -161 12 -32 107 -198 142 -246 15 -20 6 -27 -310 -233 -179 -117 -330
-211 -335 -209 -24 8 -639 414 -640 422 0 4 21 36 46 70 111 146 139 258 89
357 -30 58 -62 78 -100 61 -24 -11 -25 -15 -25 -107 l0 -95 -42 -31 c-40 -30
-137 -78 -184 -93 -16 -5 -50 17 -153 99 -506 402 -1220 911 -1635 1165 -180
110 -349 229 -486 343 -105 87 -356 338 -430 430 -51 63 -55 67 -61 45 -19
-67 -4 -304 32 -493 24 -129 96 -302 168 -400 241 -333 971 -979 1550 -1371
l100 -67 42 27 c54 36 112 56 163 56 84 -1 188 -70 257 -172 40 -59 41 -63 36
-122 -12 -131 -40 -173 -147 -215 -60 -24 -65 -29 -65 -56 0 -26 7 -33 54 -57
99 -50 171 -32 276 71 39 37 81 76 95 85 30 20 92 21 128 2 15 -8 97 -86 183
-173 160 -161 180 -192 164 -243 -4 -11 -84 -78 -178 -149 -95 -71 -228 -179
-297 -240 -154 -137 -187 -160 -252 -178 -62 -16 -101 -16 -147 -3 -19 5 -36
8 -38 7 -1 -2 30 -71 71 -153 40 -82 79 -168 86 -189 22 -70 59 -113 139 -161
77 -47 186 -131 230 -178 14 -14 28 -26 31 -26 11 0 40 101 53 185 l12 78 175
107 c191 116 384 246 584 393 l128 95 154 -114 c176 -131 422 -295 605 -403
l125 -75 12 -85 c6 -48 19 -107 28 -133 l16 -48 74 68 c41 37 118 94 172 127
107 67 135 99 157 184 9 31 23 70 32 86 8 17 33 62 54 100 21 39 45 87 53 107
l16 37 -31 -11 c-42 -14 -149 -3 -202 21 -23 10 -80 53 -127 95 -187 166 -281
242 -405 324 -71 48 -133 92 -137 97 -4 6 -8 29 -8 52 0 38 7 49 84 135 118
132 245 252 283 267 59 24 95 8 192 -84 97 -91 139 -111 219 -102 53 6 120 49
128 83 8 31 -10 46 -81 70 -62 21 -70 27 -101 80 -19 31 -27 64 -31 117 l-6
73 48 58 c92 113 154 156 237 163 64 6 96 -3 171 -50 l48 -30 87 58 c316 210
587 424 976 771 328 291 593 589 680 761 73 145 135 556 109 722 l-8 54 -38
-49z"/>
</g>
</svg>
